<svg width="200" height="164" viewBox="0 0 200 164" fill="none" xmlns="http://www.w3.org/2000/svg">
<path fill-rule="evenodd" clip-rule="evenodd" d="M92.6056 131.646H107.393V108.813H92.6056V131.646Z" fill="#86868A"/>
<path fill-rule="evenodd" clip-rule="evenodd" d="M7.39473 163.965C4.75402 163.965 2.31612 162.557 0.989431 160.267C-0.349935 157.944 -0.32881 155.075 1.04858 152.772L48.594 73.2889L86.1554 5.83464C88.7116 1.25037 93.8451 -0.934019 98.9069 0.375772C103.981 1.69401 107.395 6.10505 107.395 11.3484V94.2244H92.6072V24.6492L61.4004 80.6828L20.556 148.969L99.8829 147.74L179.569 148.974L114.405 38.0428L127.156 30.5517L198.983 152.827C200.335 155.125 200.34 157.982 198.992 160.293C197.652 162.6 195.384 163.994 192.489 163.965L99.8829 162.528L7.50881 163.965C7.46656 163.965 7.43276 163.965 7.39473 163.965Z" fill="#86868A"/>
</svg>
