<svg width="242" height="207" viewBox="0 0 242 207" fill="none" xmlns="http://www.w3.org/2000/svg">
<path fill-rule="evenodd" clip-rule="evenodd" d="M73.6972 48.875C70.4663 48.875 67.8684 51.4816 67.8684 54.7007V68.0164H79.5259V60.5263H187.775V155.401H171.221V81.3322C171.221 78.1131 168.59 75.5066 165.392 75.5066H48.8166C45.5858 75.5066 42.9878 78.1131 42.9878 81.3322V201.174C42.9878 204.39 45.5858 207 48.8166 207H170.288C173.486 207 176.117 204.39 176.117 201.174C176.117 188.365 176.117 181.54 176.117 180.701H163.86C163.86 190.466 163.86 195.349 163.86 195.349H54.6454V87.1579H159.563V161.227C159.563 164.443 162.161 167.053 165.392 167.053H193.604C196.801 167.053 199.432 164.443 199.432 161.227V54.7007C199.432 51.4816 196.801 48.875 193.604 48.875H73.6972Z" fill="#86868A"/>
<path fill-rule="evenodd" clip-rule="evenodd" d="M0.0136981 51.1241L7.3963 42.3146L22.7932 55.2507L15.4106 64.0602L0.0136981 51.1241Z" fill="#86868A"/>
<path fill-rule="evenodd" clip-rule="evenodd" d="M241.014 51.1241L233.631 42.3146L218.234 55.2507L225.617 64.0602L241.014 51.1241Z" fill="#86868A"/>
<path d="M129.128 0H117.643V20.125H129.128V0Z" fill="#86868A"/>
</svg>
