<svg width="180" height="179" viewBox="0 0 180 179" fill="none" xmlns="http://www.w3.org/2000/svg">
<path d="M136.898 158.163C138.797 161.52 137.566 165.785 134.191 167.673C131.977 168.896 129.691 170.05 127.371 171.099C126.422 171.518 125.438 171.728 124.488 171.728C121.816 171.728 119.25 170.19 118.09 167.603C116.508 164.072 118.055 159.946 121.605 158.338C123.539 157.464 125.473 156.485 127.336 155.471C130.711 153.618 135 154.807 136.898 158.163ZM161.156 133.096C158.027 130.789 153.633 131.418 151.312 134.53C150.047 136.243 148.676 137.921 147.27 139.494C144.703 142.396 144.984 146.801 147.867 149.353C149.203 150.542 150.855 151.101 152.508 151.101C154.441 151.101 156.375 150.297 157.781 148.724C159.469 146.836 161.086 144.843 162.598 142.85C164.918 139.774 164.285 135.404 161.156 133.096ZM172.934 100.303C169.137 99.4988 165.41 101.876 164.566 105.652C164.109 107.715 163.547 109.812 162.949 111.84C161.789 115.546 163.898 119.462 167.59 120.58C168.293 120.79 168.996 120.895 169.664 120.895C172.652 120.895 175.43 118.972 176.379 115.965C177.117 113.553 177.785 111.106 178.312 108.624C179.121 104.848 176.695 101.107 172.934 100.303ZM82.9688 33.5625V86.5982L57.1992 112.225C54.457 114.952 54.457 119.392 57.1992 122.119C58.5703 123.482 60.3633 124.181 62.1562 124.181C63.9492 124.181 65.7422 123.482 67.1133 122.119L94.957 94.4295C96.293 93.101 97.0312 91.3529 97.0312 89.5V33.5625C97.0312 29.7168 93.8672 26.5703 90 26.5703C86.1328 26.5703 82.9688 29.7168 82.9688 33.5625ZM172.969 15.0332C169.102 15.0332 165.938 18.1797 165.938 22.0254V41.4287C149.555 15.9072 121.008 0 90 0C65.9531 0 43.3477 9.29961 26.3672 26.2207C9.35156 43.1068 0 65.5867 0 89.5C0 113.413 9.35156 135.893 26.3672 152.779C43.3828 169.7 65.9531 179 90 179C90.0703 179 90.1055 179 90.1758 179C90.2461 179 90.2812 179 90.3516 179C92.8828 179 95.4492 178.895 97.9453 178.685C101.812 178.371 104.695 174.979 104.379 171.134C104.062 167.288 100.652 164.421 96.7851 164.736C94.6758 164.911 92.4961 165.016 90.3516 165.016C90.2812 165.016 90.2461 165.016 90.1758 165.016C90.1055 165.016 90.0703 165.016 90 165.016C48.1289 165.016 14.0625 131.138 14.0625 89.5C14.0625 47.8615 48.1289 13.9844 90 13.9844C117 13.9844 141.82 28.2834 155.355 51.043H136.02C132.152 51.043 128.988 54.1895 128.988 58.0352C128.988 61.8809 132.152 65.0273 136.02 65.0273H157.5C161.789 65.0273 165.797 63.8387 169.207 61.741C169.418 61.6012 169.629 61.4963 169.84 61.3215C175.957 57.3359 180 50.4486 180 42.6523V22.0254C180 18.1797 176.836 15.0332 172.969 15.0332Z" fill="#86868A"/>
</svg>
